HIERARCHY
ROOT hip
{
	OFFSET 0.000000 0.000000 0.000000 
	CHANNELS 6 Xposition Yposition Zposition Xrotation Zrotation Yrotation
	JOINT abdomen
	{
		OFFSET 0.000000 3.402643 0.000000 
		CHANNELS 3 Xrotation Zrotation Yrotation
		JOINT chest
		{
			OFFSET 0.000000 8.438565 -0.680529 
			CHANNELS 3 Xrotation Zrotation Yrotation
			JOINT neck
			{
				OFFSET 0.000000 10.207942 -0.272212 
				CHANNELS 3 Xrotation Zrotation Yrotation
				JOINT head
				{
					OFFSET 0.000000 3.130431 0.000000 
					CHANNELS 3 Xrotation Zrotation Yrotation
					End Site
					{
						OFFSET 0.000000 3.130435 0.000000 
					}
				}
			}
			JOINT lCollar
			{
				OFFSET 3.470700 6.669187 -0.816635 
				CHANNELS 3 Yrotation Zrotation Xrotation
				JOINT lShldr
				{
					OFFSET 3.198488 0.000000 0.000000 
					CHANNELS 3 Zrotation Yrotation Xrotation
					JOINT lForeArm
					{
						OFFSET 10.139888 0.000000 0.000000 
						CHANNELS 3 Yrotation Zrotation Xrotation
						JOINT lHand
						{
							OFFSET 8.370511 0.000000 0.000000 
							CHANNELS 3 Zrotation Yrotation Xrotation
							End Site
							{
								OFFSET 4.083176 0.000000 0.000000 
							}
						}
					}
				}
			}
			JOINT rCollar
			{
				OFFSET -3.470700 6.669187 -0.816635 
				CHANNELS 3 Yrotation Zrotation Xrotation
				JOINT rShldr
				{
					OFFSET -3.198488 0.000000 0.000000 
					CHANNELS 3 Zrotation Yrotation Xrotation
					JOINT rForeArm
					{
						OFFSET -10.139888 0.000000 0.000000 
						CHANNELS 3 Yrotation Zrotation Xrotation
						JOINT rHand
						{
							OFFSET -8.370511 0.000000 0.000000 
							CHANNELS 3 Zrotation Yrotation Xrotation
							End Site
							{
								OFFSET -4.083176 0.000000 0.000000 
							}
						}
					}
				}
			}
		}
	}
	JOINT lThigh
	{
		OFFSET 5.308129 -1.633274 1.361059 
		CHANNELS 3 Xrotation Zrotation Yrotation
		JOINT lShin
		{
			OFFSET -2.041588 -20.007561 0.000000 
			CHANNELS 3 Xrotation Zrotation Yrotation
			JOINT lFoot
			{
				OFFSET 0.000000 -19.190928 -1.224953 
				CHANNELS 3 Xrotation Yrotation Zrotation
				End Site
				{
					OFFSET 0.000000 -2.449906 4.627600 
				}
			}
		}
	}
	JOINT rThigh
	{
		OFFSET -5.308129 -1.633274 1.361059 
		CHANNELS 3 Xrotation Zrotation Yrotation
		JOINT rShin
		{
			OFFSET 2.041588 -20.007561 0.000000 
			CHANNELS 3 Xrotation Zrotation Yrotation
			JOINT rFoot
			{
				OFFSET 0.000000 -19.190928 -1.224953 
				CHANNELS 3 Xrotation Yrotation Zrotation
				End Site
				{
					OFFSET 0.000000 -2.449906 4.627600 
				}
			}
		}
	}
}
MOTION
Frames: 13
Frame Time: 0.033333
-8.122628 43.057850 -1.879212 -9.404297 -18.330078 154.570313 10.566406 -3.359375 -1.855469 -3.671875 -4.472656 5.537109 35.019531 11.494141 0.683594 -38.125004 -15.898437 2.128906 -10.781250 30.000000 25.000000 -69.707031 -29.550783 12.246094 -90.791016 24.257813 45.679581 9.707031 -28.632813 -10.366006 -28.837893 -9.570313 19.042967 23.203125 6.337891 89.052734 -40.087891 -3.027344 -90.116669 2.666016 7.568360 -41.121758 -13.988475 6.468822 18.556925 49.411419 -0.697145 -2.325036 -24.056387 -5.029348 -13.721350 -53.173996 -34.023605 -7.906675 54.729385 -9.764120 1.920313 21.375694 -15.082168 35.286129 
-8.000935 42.985607 -1.701839 -9.433595 -17.900389 151.289063 10.566406 -3.359375 -1.855469 -2.695313 -3.876953 5.644532 29.707029 13.662109 0.888672 -37.324219 -17.001953 0.758864 -12.011719 29.999998 24.995119 -78.554688 -35.019527 16.240232 -86.757813 30.439455 36.347652 13.916016 -26.123047 -11.650390 -30.371096 -10.126954 18.378904 24.091797 5.751953 90.048828 -35.751953 -5.000000 -89.852669 2.343750 9.648438 -40.810547 -14.224385 7.436813 18.838427 50.465534 -0.218628 -2.233961 -24.311464 -1.994929 -14.955382 -54.586617 -31.120760 -6.611010 54.942623 -9.578336 1.971069 20.738388 -14.536897 34.209785 
-7.624907 43.490700 -1.670963 -9.697266 -17.402344 146.269531 10.566406 -3.359375 -1.855469 -2.363281 -2.626953 5.917969 26.259766 15.009766 1.015625 -37.705078 -16.464842 1.035156 -12.158202 29.999998 24.995119 -85.000000 -34.814453 18.646767 -85.888672 34.580078 34.287113 19.169922 -25.576170 -13.544921 -30.976564 -9.804688 18.437500 22.773438 6.044921 88.828125 -33.183594 -10.195313 -81.306862 4.326172 14.179687 -38.623047 -11.129042 9.417144 19.761883 47.118538 -2.373876 -2.588821 -22.887415 0.853301 -15.631169 -54.681755 -28.560829 -5.593420 53.199226 -5.702693 2.674062 20.975424 -13.464807 32.567005 
-7.120636 44.241093 -1.792483 -11.376952 -18.867188 140.709732 10.566406 -3.359375 -1.855469 -5.302734 -1.513672 6.191148 25.087891 15.585938 1.076843 -35.673828 -16.191408 0.253906 -10.546876 30.000000 25.000000 -89.238281 -31.650391 19.692144 -85.312500 36.113281 33.421978 19.970705 -26.113281 -14.252346 -30.888674 -11.230470 17.587889 22.656248 6.894531 88.369141 -30.205078 -17.128906 -73.561577 5.341797 12.587892 -39.070137 -8.953397 10.200535 20.209955 41.940987 -4.501168 -2.823667 -19.156958 4.211203 -18.609329 -56.166779 -27.038235 -4.904637 50.185478 0.029205 3.627846 21.406944 -12.636962 29.602388 
-6.076125 45.558598 -2.122384 -5.117188 -15.410156 131.259781 10.566406 -3.359375 -1.855469 1.054688 -1.523433 6.093509 26.640623 13.613280 0.898438 -36.103512 -12.939453 2.654064 -3.652344 30.000000 25.000000 -83.291016 -27.119143 17.192814 -84.716797 37.177738 31.869095 16.308594 -25.537111 -13.164063 -28.857420 -10.078124 18.761473 20.654297 10.585938 85.255699 -28.261717 -21.357422 -66.724960 6.210938 12.441406 -39.179691 4.157902 9.734292 20.529356 35.614857 -6.693192 -2.948917 -10.189050 3.901760 -31.063349 -47.629612 -25.005423 -4.705425 46.615482 4.413603 4.200203 23.059137 -9.530694 29.374510 
-5.166200 46.358627 -2.273690 -4.921875 -18.935547 125.436287 10.566406 -3.359375 -1.855469 -3.896484 -2.753906 5.907734 29.902342 12.333984 0.781250 -37.050781 -12.373047 3.308454 -0.673828 30.000000 24.326174 -84.882813 -23.115234 17.447338 -81.464844 36.738281 27.845722 15.429688 -26.367189 -13.060978 -27.392578 -12.900391 17.599836 24.238281 12.812500 87.267891 -26.376955 -24.833984 -62.939457 5.253906 11.035156 -40.634762 2.576557 9.811933 20.543945 37.218769 -6.821054 -3.091584 0.058518 -1.123769 -33.792561 -50.418079 -25.477648 -4.699769 45.992443 9.071956 5.232119 24.611870 -8.446425 31.134670 
-3.977493 47.173134 -2.172763 -2.851562 -20.595703 117.584450 10.566406 -3.359375 -1.855469 -6.611329 -3.710938 5.722657 33.906246 8.750000 0.478516 -37.636719 -8.623046 5.234375 6.113282 30.000000 19.467773 -80.468750 -18.828125 15.807395 -78.867188 35.498043 22.177734 16.718750 -26.796877 -13.451669 -23.408203 -14.326173 18.066406 27.373049 14.306641 89.055145 -26.650389 -29.589844 -59.506897 7.324219 10.869141 -40.388786 2.339806 12.736763 21.724558 41.438713 -8.187671 -3.649817 10.875763 -11.478782 -26.485960 -50.688026 -23.024826 -3.789521 46.137146 12.235329 5.940454 25.119488 -12.873898 35.850510 
-2.568929 47.640022 -2.294611 1.396484 -18.876955 111.842545 10.566406 -3.359375 -1.855469 -5.966797 -5.292969 5.390625 37.910160 6.445313 0.274534 -38.564453 -6.289063 5.839844 10.205078 30.000000 17.607424 -76.796875 -17.265623 14.531250 -77.050781 34.941402 15.302735 16.777344 -27.705078 -13.349609 -20.332029 -14.541015 18.898935 29.501951 16.181641 89.892578 -25.458984 -29.882813 -56.157249 7.822266 10.166016 -40.839848 4.931127 13.740230 22.172880 44.881485 -5.025251 -3.065182 25.444794 -20.903652 -27.825790 -45.791618 -23.438087 -4.248081 47.561119 14.405306 6.579818 23.774870 -20.990038 34.314476 
-1.270831 47.513447 -2.341299 4.248047 -17.001955 106.064453 10.566406 -3.359375 -1.855469 -5.878906 -5.468750 5.351563 40.664063 3.173828 0.010306 -38.779297 -4.218750 6.445313 13.251953 30.000000 17.216799 -73.496094 -14.667970 13.347137 -77.304688 36.191406 8.837890 16.943357 -28.837893 -13.193360 -16.269531 -15.654299 19.729197 32.763668 18.583984 91.279297 -25.478516 -27.314453 -54.785160 6.396484 10.517578 -41.630859 6.073449 15.262862 22.840734 50.914974 -0.368900 -2.294608 30.549793 -21.791456 -19.974688 -42.785564 -22.573776 -4.144932 50.698330 14.930558 7.020652 21.458872 -28.553827 32.514790 
-0.109142 46.858513 -2.422202 6.093750 -15.527344 101.227859 10.566406 -3.359375 -1.855469 -6.142578 -5.058594 5.439453 41.767582 0.410156 -0.195243 -38.154293 -3.183594 7.392035 13.935547 24.775391 18.150206 -73.095703 -10.654297 13.289212 -80.107422 40.214848 6.494139 19.912107 -29.941408 -14.228516 -13.496095 -15.957031 20.488281 34.687500 20.927734 91.728516 -24.970703 -24.482420 -54.267582 3.369141 10.185547 -43.279526 5.106865 16.220320 23.268745 58.424675 6.757205 -1.019012 27.713875 -17.225374 -13.000983 -41.099960 -22.097481 -4.072214 54.344955 16.074306 7.615599 13.341195 -25.508366 26.496674 
0.943915 45.909077 -2.362081 6.513672 -14.462890 96.269531 10.566406 -3.359375 -1.855469 -6.660156 -3.681641 5.731794 41.796875 -1.865234 -0.371094 -36.914063 -1.982422 9.071927 15.048828 20.058594 18.847656 -74.189453 -6.484375 13.876953 -82.949219 43.740238 3.635826 21.835938 -31.455080 -14.746095 -10.400392 -14.541017 21.708982 35.498047 23.066408 91.517502 -24.960938 -20.605471 -54.527809 0.166016 11.630854 -44.451145 2.916283 17.914631 23.995846 65.532440 14.929943 0.552188 26.874739 -13.861493 -4.240313 -41.587528 -19.822206 -3.254228 57.896248 16.815680 8.159241 7.403936 -25.270323 22.334059 
1.895048 45.074982 -2.474196 7.197265 -11.484375 91.962891 10.566406 -3.359375 -1.855469 -4.541016 -2.441406 5.976147 41.572266 -2.949219 -0.439956 -37.021484 -1.484375 9.316153 14.873046 14.775392 20.283203 -75.488281 -2.900391 14.580077 -84.375000 45.693359 -1.738281 24.003908 -32.646488 -14.770892 -7.441407 -11.660156 22.958981 35.000000 25.371094 90.458984 -23.486328 -15.166015 -59.313854 -0.781250 11.552734 -45.097656 2.046719 18.098934 24.043039 70.825577 22.486347 2.127192 30.161001 -7.879783 -0.027832 -39.541386 -18.115665 -2.794467 61.316227 15.420897 8.144775 1.939621 -20.529203 20.180418 
2.655723 44.259415 -2.352171 5.537109 -10.849609 87.832031 10.566406 -3.359375 -1.855469 -4.707031 0.439453 6.611403 41.103516 -3.242188 -0.468755 -37.314453 -1.660156 9.257857 14.892577 12.871094 20.771484 -79.023438 0.634766 16.083984 -81.845703 46.445313 -0.976563 25.986328 -32.207035 -14.995440 -6.191406 -9.814453 23.476563 37.753910 29.306641 91.000877 -22.285156 -10.517579 -60.771484 -4.101563 14.970702 -45.593174 -2.189581 20.735739 25.094957 75.384888 29.163900 3.673240 26.838520 -5.439507 1.348269 -38.746197 -13.631839 -1.377089 62.126316 15.126672 8.150023 -4.189734 -19.454699 16.981781 
